<?xml version="1.0" encoding="utf-8"?>
<!-- Generator: Adobe Illustrator 19.1.0, SVG Export Plug-In . SVG Version: 6.00 Build 0)  -->
<!DOCTYPE svg PUBLIC "-//W3C//DTD SVG 1.1//EN" "http://www.w3.org/Graphics/SVG/1.1/DTD/svg11.dtd" [
	<!ENTITY ns_extend "http://ns.adobe.com/Extensibility/1.0/">
	<!ENTITY ns_ai "http://ns.adobe.com/AdobeIllustrator/10.0/">
	<!ENTITY ns_graphs "http://ns.adobe.com/Graphs/1.0/">
	<!ENTITY ns_vars "http://ns.adobe.com/Variables/1.0/">
	<!ENTITY ns_imrep "http://ns.adobe.com/ImageReplacement/1.0/">
	<!ENTITY ns_sfw "http://ns.adobe.com/SaveForWeb/1.0/">
	<!ENTITY ns_custom "http://ns.adobe.com/GenericCustomNamespace/1.0/">
	<!ENTITY ns_adobe_xpath "http://ns.adobe.com/XPath/1.0/">
]>
<svg version="1.1" id="Laag_1" xmlns:x="&ns_extend;" xmlns:i="&ns_ai;" xmlns:graph="&ns_graphs;"
	 xmlns="http://www.w3.org/2000/svg" xmlns:xlink="http://www.w3.org/1999/xlink" x="0px" y="0px" viewBox="0 0 500 500"
	 style="enable-background:new 0 0 500 500;" xml:space="preserve">
<style type="text/css">
	.Slagschaduw{fill:none;}
	.Buitenste_x0020_gloed_x0020_5_x0020_pt{fill:none;}
	.Jive_AS{fill:#A6D0E4;}
	.st0{fill:#F4F064;}
	.st1{fill:#D6D636;}
</style>
<metadata>
	<sfw  xmlns="&ns_sfw;">
		<slices></slices>
		<sliceSourceBounds  width="437.2" height="296.1" bottomLeftOrigin="true" x="32" y="-397.9"></sliceSourceBounds>
	</sfw>
</metadata>
<g>
	<path d="M49,396.1L32,346h11.2l11,35.2L65,346h10.9l-17,50.2H49z"/>
	<path d="M120.6,397.9c-7.8,0-13.7-2.3-17.9-6.8c-4.2-4.5-6.2-11.1-6.2-19.6c0-4.2,0.5-8,1.6-11.4c1.1-3.4,2.6-6.2,4.7-8.6
		c2.1-2.3,4.6-4.1,7.6-5.4c3-1.2,6.4-1.9,10.3-1.9c3.8,0,7.2,0.6,10.2,1.9c3,1.2,5.5,3,7.5,5.4c2,2.4,3.6,5.3,4.6,8.7
		c1.1,3.4,1.6,7.2,1.6,11.5c0,8.7-2.1,15.2-6.2,19.6C134.3,395.7,128.3,397.9,120.6,397.9z M120.6,388.9c1.9,0,3.6-0.3,5.3-1
		c1.7-0.7,3.1-1.7,4.3-3.1c1.2-1.4,2.2-3.2,2.9-5.3c0.7-2.2,1.1-4.7,1.1-7.7c0-5.9-1.2-10.5-3.5-13.5c-2.3-3.1-5.7-4.6-10.1-4.6
		c-4.4,0-7.8,1.5-10.2,4.6c-2.4,3.1-3.6,7.6-3.6,13.5c0,5.9,1.2,10.3,3.6,13C112.8,387.5,116.2,388.9,120.6,388.9z"/>
	<path d="M179.9,396.1v-41.4h-15.1V346h40.8v8.8h-15.2v41.4H179.9z"/>
	<path d="M230.4,396.1V346h36.9v8.8h-26.7v10.7h24.6v8.8h-24.6v12.9h27.9v8.9H230.4z"/>
	<path d="M292.8,396.1V346h24.7c4.9,0,8.7,1.2,11.3,3.7c2.6,2.4,3.9,5.8,3.9,10c0,2.2-0.6,4.1-1.7,5.8c-1.2,1.7-2.6,2.9-4.4,3.6
		c1.1,0.4,2.1,0.9,3,1.5c0.9,0.6,1.7,1.4,2.4,2.4s1.2,2.1,1.6,3.5c0.4,1.3,0.6,2.9,0.6,4.7c0,4.6-1.5,8.2-4.6,10.9
		c-3.1,2.7-7.8,4-14.1,4H292.8z M303,354.6v10.9h13.2c4.2,0,6.3-1.8,6.3-5.4c0-1.9-0.5-3.3-1.6-4.2s-2.9-1.3-5.3-1.3H303z
		 M316.3,387.6c2.4,0,4.3-0.7,5.7-2c1.4-1.4,2-3.1,2-5.1c0-2.2-0.7-3.8-2-4.8c-1.3-1-3.2-1.5-5.6-1.5H303v13.5H316.3z"/>
	<path d="M382.1,397.9c-7.8,0-13.7-2.3-17.9-6.8c-4.2-4.5-6.2-11.1-6.2-19.6c0-4.2,0.5-8,1.6-11.4c1.1-3.4,2.6-6.2,4.7-8.6
		c2.1-2.3,4.6-4.1,7.6-5.4c3-1.2,6.4-1.9,10.3-1.9c3.8,0,7.2,0.6,10.2,1.9c3,1.2,5.5,3,7.5,5.4c2,2.4,3.6,5.3,4.6,8.7
		c1.1,3.4,1.6,7.2,1.6,11.5c0,8.7-2.1,15.2-6.2,19.6C395.8,395.7,389.8,397.9,382.1,397.9z M382.1,388.9c1.9,0,3.6-0.3,5.3-1
		c1.7-0.7,3.1-1.7,4.3-3.1c1.2-1.4,2.2-3.2,2.9-5.3c0.7-2.2,1.1-4.7,1.1-7.7c0-5.9-1.2-10.5-3.5-13.5c-2.3-3.1-5.7-4.6-10.1-4.6
		c-4.4,0-7.8,1.5-10.2,4.6c-2.4,3.1-3.6,7.6-3.6,13.5c0,5.9,1.2,10.3,3.6,13C374.3,387.5,377.7,388.9,382.1,388.9z"/>
	<path d="M456.3,396.1l-9.6-17.2l-10.1,17.2h-12.2l16.2-25.6L425.3,346h12.4l9.1,16.2l9.1-16.2H468l-15.3,24.1l16.3,26.1H456.3z"/>
</g>
<g>
	<g>
		<polygon class="st0" points="253.6,299.9 348,216.7 348,101.8 253.6,164.9 		"/>
	</g>
	<g>
		<polygon class="st1" points="247.5,299.9 153.1,216.7 153.1,101.8 247.5,164.9 		"/>
	</g>
</g>
</svg>
