<?xml version="1.0" encoding="utf-8"?>
<!-- Generator: Adobe Illustrator 19.1.0, SVG Export Plug-In . SVG Version: 6.00 Build 0)  -->
<!DOCTYPE svg PUBLIC "-//W3C//DTD SVG 1.1//EN" "http://www.w3.org/Graphics/SVG/1.1/DTD/svg11.dtd" [
	<!ENTITY ns_extend "http://ns.adobe.com/Extensibility/1.0/">
	<!ENTITY ns_ai "http://ns.adobe.com/AdobeIllustrator/10.0/">
	<!ENTITY ns_graphs "http://ns.adobe.com/Graphs/1.0/">
	<!ENTITY ns_vars "http://ns.adobe.com/Variables/1.0/">
	<!ENTITY ns_imrep "http://ns.adobe.com/ImageReplacement/1.0/">
	<!ENTITY ns_sfw "http://ns.adobe.com/SaveForWeb/1.0/">
	<!ENTITY ns_custom "http://ns.adobe.com/GenericCustomNamespace/1.0/">
	<!ENTITY ns_adobe_xpath "http://ns.adobe.com/XPath/1.0/">
]>
<svg version="1.1" id="Laag_1" xmlns:x="&ns_extend;" xmlns:i="&ns_ai;" xmlns:graph="&ns_graphs;"
	 xmlns="http://www.w3.org/2000/svg" xmlns:xlink="http://www.w3.org/1999/xlink" x="0px" y="0px" viewBox="0 0 779.3 276.7"
	 style="enable-background:new 0 0 779.3 276.7;" xml:space="preserve">
<style type="text/css">
	.Slagschaduw{fill:none;}
	.Buitenste_x0020_gloed_x0020_5_x0020_pt{fill:none;}
	.Jive_AS{fill:#A6D0E4;}
	.st0{fill:#F4F064;}
	.st1{fill:#D6D636;}
</style>
<metadata>
	<sfw  xmlns="&ns_sfw;">
		<slices></slices>
		<sliceSourceBounds  width="671.6" height="198.1" bottomLeftOrigin="true" x="151.2" y="-296.8"></sliceSourceBounds>
	</sfw>
</metadata>
<g>
	<path d="M295.6,160.7l-17-50.2h11.2l11,35.2l10.9-35.2h10.9l-17,50.2H295.6z"/>
	<path d="M367.3,162.4c-7.8,0-13.7-2.3-17.9-6.8c-4.2-4.5-6.2-11.1-6.2-19.6c0-4.2,0.5-8,1.6-11.4c1.1-3.4,2.6-6.2,4.7-8.6
		c2.1-2.3,4.6-4.1,7.6-5.4c3-1.2,6.4-1.9,10.3-1.9c3.8,0,7.2,0.6,10.2,1.9c3,1.2,5.5,3,7.5,5.4c2,2.4,3.6,5.3,4.6,8.7
		c1.1,3.4,1.6,7.2,1.6,11.5c0,8.7-2.1,15.2-6.2,19.6C381,160.2,375,162.4,367.3,162.4z M367.3,153.4c1.9,0,3.6-0.3,5.3-1
		c1.7-0.7,3.1-1.7,4.3-3.1c1.2-1.4,2.2-3.2,2.9-5.3c0.7-2.2,1.1-4.7,1.1-7.7c0-5.9-1.2-10.5-3.5-13.5c-2.3-3.1-5.7-4.6-10.1-4.6
		c-4.4,0-7.8,1.5-10.2,4.6c-2.4,3.1-3.6,7.6-3.6,13.5c0,5.9,1.2,10.3,3.6,13C359.5,152.1,362.9,153.4,367.3,153.4z"/>
	<path d="M426.6,160.7v-41.4h-15.1v-8.8h40.8v8.8h-15.2v41.4H426.6z"/>
	<path d="M477.1,160.7v-50.2h36.9v8.8h-26.7V130h24.6v8.8h-24.6v12.9h27.9v8.9H477.1z"/>
	<path d="M539.5,160.7v-50.2h24.7c4.9,0,8.7,1.2,11.3,3.7c2.6,2.4,3.9,5.8,3.9,10c0,2.2-0.6,4.1-1.7,5.8c-1.2,1.7-2.6,2.9-4.4,3.6
		c1.1,0.4,2.1,0.9,3,1.5c0.9,0.6,1.7,1.4,2.4,2.4s1.2,2.1,1.6,3.5c0.4,1.3,0.6,2.9,0.6,4.7c0,4.6-1.5,8.2-4.6,10.9
		c-3.1,2.7-7.8,4-14.1,4H539.5z M549.7,119.2v10.9h13.2c4.2,0,6.3-1.8,6.3-5.4c0-1.9-0.5-3.3-1.6-4.2s-2.9-1.3-5.3-1.3H549.7z
		 M563,152.1c2.4,0,4.3-0.7,5.7-2c1.4-1.4,2-3.1,2-5.1c0-2.2-0.7-3.8-2-4.8c-1.3-1-3.2-1.5-5.6-1.5h-13.4v13.5H563z"/>
	<path d="M628.8,162.4c-7.8,0-13.7-2.3-17.9-6.8c-4.2-4.5-6.2-11.1-6.2-19.6c0-4.2,0.5-8,1.6-11.4c1.1-3.4,2.6-6.2,4.7-8.6
		c2.1-2.3,4.6-4.1,7.6-5.4c3-1.2,6.4-1.9,10.3-1.9c3.8,0,7.2,0.6,10.2,1.9c3,1.2,5.5,3,7.5,5.4c2,2.4,3.6,5.3,4.6,8.7
		c1.1,3.4,1.6,7.2,1.6,11.5c0,8.7-2.1,15.2-6.2,19.6C642.5,160.2,636.5,162.4,628.8,162.4z M628.8,153.4c1.9,0,3.6-0.3,5.3-1
		c1.7-0.7,3.1-1.7,4.3-3.1c1.2-1.4,2.2-3.2,2.9-5.3c0.7-2.2,1.1-4.7,1.1-7.7c0-5.9-1.2-10.5-3.5-13.5c-2.3-3.1-5.7-4.6-10.1-4.6
		c-4.4,0-7.8,1.5-10.2,4.6c-2.4,3.1-3.6,7.6-3.6,13.5c0,5.9,1.2,10.3,3.6,13C621,152.1,624.4,153.4,628.8,153.4z"/>
	<path d="M703,160.7l-9.6-17.2l-10.1,17.2h-12.2l16.2-25.6L672,110.5h12.4l9.1,16.2l9.1-16.2h12.2l-15.3,24.1l16.3,26.1H703z"/>
</g>
<g>
	<g>
		<polygon class="st0" points="144.6,237.1 239,153.9 239,39 144.6,102.2 		"/>
	</g>
	<g>
		<polygon class="st1" points="138.6,237.1 44.2,153.9 44.2,39 138.6,102.2 		"/>
	</g>
</g>
</svg>
