<?xml version="1.0" encoding="utf-8"?>
<!-- Svg Vector Icons : http://www.onlinewebfonts.com/icon -->
<!DOCTYPE svg PUBLIC "-//W3C//DTD SVG 1.1//EN" "http://www.w3.org/Graphics/SVG/1.1/DTD/svg11.dtd">
<svg version="1.1" xmlns="http://www.w3.org/2000/svg" xmlns:xlink="http://www.w3.org/1999/xlink" x="0px" y="0px" viewBox="0 0 1000 1000" enable-background="new 0 0 1000 1000" xml:space="preserve">
<metadata> Svg Vector Icons : http://www.onlinewebfonts.com/icon </metadata>
<g><path d="M967.8,860.7L794.3,687.2c50.2-71.7,77.3-157,77.3-246.4c0-115.1-44.8-223.3-126.2-304.6C664.1,54.8,555.9,10,440.8,10c-115.1,0-223.3,44.8-304.6,126.2C54.8,217.6,10,325.8,10,440.8c0,115.1,44.8,223.3,126.2,304.6c81.4,81.4,189.6,126.2,304.6,126.2c89.4,0,174.7-27.1,246.4-77.3l173.5,173.5c14.8,14.8,34.2,22.2,53.6,22.2s38.8-7.4,53.6-22.2C997.4,938.2,997.4,890.3,967.8,860.7L967.8,860.7z M161.5,440.8c0-154,125.3-279.3,279.3-279.3c154,0,279.3,125.3,279.3,279.3c0,154-125.3,279.3-279.3,279.3C286.8,720.1,161.5,594.8,161.5,440.8L161.5,440.8z"/></g>
</svg>